<svg width="1441" height="689" viewBox="0 0 1441 689" fill="none" xmlns="http://www.w3.org/2000/svg">
<rect width="1441" height="688" fill="#F1F6FF"/>
<path d="M1441 688.5H791L792 658L794.5 627L797.5 596.5L803 566L806 550.5L810 534.5L818 503L828 472L839.5 441L868.5 377.5L886.5 346.5L906.5 316L950 259L973.5 233.5L999.5 207L1022.5 187L1045 168L1068 150.5L1094 134L1107 126L1120 118.5L1146.5 104L1174 90.5L1201.5 78.5L1229 68.5L1242.5 64L1257 59.5L1272 55L1287 51L1302.5 47.5L1318 44.5L1379 35.5L1441 32V688.5Z" fill="#E0E9FF"/>
<path d="M1441 689H926L926.792 667.257L928.773 645.158L931.15 623.416L935.508 601.673L937.885 590.624L941.054 579.218L947.392 556.762L955.315 534.663L964.427 512.564L987.404 467.297L1001.67 445.198L1017.51 423.455L1051.98 382.822L1070.6 364.644L1091.2 345.752L1109.42 331.495L1127.25 317.951L1145.47 305.475L1166.07 293.713L1176.37 288.01L1186.67 282.663L1207.67 272.327L1229.45 262.703L1251.24 254.149L1273.03 247.02L1283.73 243.812L1295.22 240.604L1307.1 237.396L1318.98 234.545L1331.27 232.05L1343.55 229.911L1391.88 223.495L1441 221V689Z" fill="#BECEFE"/>
<ellipse cx="965" cy="553" rx="39" ry="36" fill="#E0E9FF"/>
<ellipse cx="1102" cy="87" rx="58" ry="53" fill="#E0E9FF"/>
<ellipse cx="849" cy="99" rx="27" ry="25" fill="#E0E9FF"/>
<ellipse cx="791" cy="593" rx="27" ry="25" fill="#E0E9FF"/>
</svg>
